G75*
G70*
%OFA0B0*%
%FSLAX24Y24*%
%IPPOS*%
%LPD*%
%AMOC8*
5,1,8,0,0,1.08239X$1,22.5*
%
%ADD10C,0.0000*%
%ADD11C,0.0080*%
%ADD12C,0.0050*%
%ADD13C,0.0060*%
%ADD14C,0.0150*%
%ADD15C,0.0120*%
D10*
X006618Y007811D02*
X024988Y007811D01*
X025032Y007813D01*
X025075Y007819D01*
X025117Y007828D01*
X025159Y007841D01*
X025199Y007858D01*
X025238Y007878D01*
X025275Y007901D01*
X025309Y007928D01*
X025342Y007957D01*
X025371Y007990D01*
X025398Y008024D01*
X025421Y008061D01*
X025441Y008100D01*
X025458Y008140D01*
X025471Y008182D01*
X025480Y008224D01*
X025486Y008267D01*
X025488Y008311D01*
X025488Y026807D01*
X025486Y026851D01*
X025480Y026894D01*
X025471Y026936D01*
X025458Y026978D01*
X025441Y027018D01*
X025421Y027057D01*
X025398Y027094D01*
X025371Y027128D01*
X025342Y027161D01*
X025309Y027190D01*
X025275Y027217D01*
X025238Y027240D01*
X025199Y027260D01*
X025159Y027277D01*
X025117Y027290D01*
X025075Y027299D01*
X025032Y027305D01*
X024988Y027307D01*
X006618Y027307D01*
X006574Y027305D01*
X006531Y027299D01*
X006489Y027290D01*
X006447Y027277D01*
X006407Y027260D01*
X006368Y027240D01*
X006331Y027217D01*
X006297Y027190D01*
X006264Y027161D01*
X006235Y027128D01*
X006208Y027094D01*
X006185Y027057D01*
X006165Y027018D01*
X006148Y026978D01*
X006135Y026936D01*
X006126Y026894D01*
X006120Y026851D01*
X006118Y026807D01*
X006118Y008311D01*
X006120Y008267D01*
X006126Y008224D01*
X006135Y008182D01*
X006148Y008140D01*
X006165Y008100D01*
X006185Y008061D01*
X006208Y008024D01*
X006235Y007990D01*
X006264Y007957D01*
X006297Y007928D01*
X006331Y007901D01*
X006368Y007878D01*
X006407Y007858D01*
X006447Y007841D01*
X006489Y007828D01*
X006531Y007819D01*
X006574Y007813D01*
X006618Y007811D01*
X010468Y012561D02*
X010470Y012611D01*
X010476Y012661D01*
X010486Y012711D01*
X010499Y012759D01*
X010516Y012807D01*
X010537Y012853D01*
X010561Y012897D01*
X010589Y012939D01*
X010620Y012979D01*
X010654Y013016D01*
X010691Y013051D01*
X010730Y013082D01*
X010771Y013111D01*
X010815Y013136D01*
X010861Y013158D01*
X010908Y013176D01*
X010956Y013190D01*
X011005Y013201D01*
X011055Y013208D01*
X011105Y013211D01*
X011156Y013210D01*
X011206Y013205D01*
X011256Y013196D01*
X011304Y013184D01*
X011352Y013167D01*
X011398Y013147D01*
X011443Y013124D01*
X011486Y013097D01*
X011526Y013067D01*
X011564Y013034D01*
X011599Y012998D01*
X011632Y012959D01*
X011661Y012918D01*
X011687Y012875D01*
X011710Y012830D01*
X011729Y012783D01*
X011744Y012735D01*
X011756Y012686D01*
X011764Y012636D01*
X011768Y012586D01*
X011768Y012536D01*
X011764Y012486D01*
X011756Y012436D01*
X011744Y012387D01*
X011729Y012339D01*
X011710Y012292D01*
X011687Y012247D01*
X011661Y012204D01*
X011632Y012163D01*
X011599Y012124D01*
X011564Y012088D01*
X011526Y012055D01*
X011486Y012025D01*
X011443Y011998D01*
X011398Y011975D01*
X011352Y011955D01*
X011304Y011938D01*
X011256Y011926D01*
X011206Y011917D01*
X011156Y011912D01*
X011105Y011911D01*
X011055Y011914D01*
X011005Y011921D01*
X010956Y011932D01*
X010908Y011946D01*
X010861Y011964D01*
X010815Y011986D01*
X010771Y012011D01*
X010730Y012040D01*
X010691Y012071D01*
X010654Y012106D01*
X010620Y012143D01*
X010589Y012183D01*
X010561Y012225D01*
X010537Y012269D01*
X010516Y012315D01*
X010499Y012363D01*
X010486Y012411D01*
X010476Y012461D01*
X010470Y012511D01*
X010468Y012561D01*
X006468Y026311D02*
X006470Y026361D01*
X006476Y026411D01*
X006486Y026461D01*
X006499Y026509D01*
X006516Y026557D01*
X006537Y026603D01*
X006561Y026647D01*
X006589Y026689D01*
X006620Y026729D01*
X006654Y026766D01*
X006691Y026801D01*
X006730Y026832D01*
X006771Y026861D01*
X006815Y026886D01*
X006861Y026908D01*
X006908Y026926D01*
X006956Y026940D01*
X007005Y026951D01*
X007055Y026958D01*
X007105Y026961D01*
X007156Y026960D01*
X007206Y026955D01*
X007256Y026946D01*
X007304Y026934D01*
X007352Y026917D01*
X007398Y026897D01*
X007443Y026874D01*
X007486Y026847D01*
X007526Y026817D01*
X007564Y026784D01*
X007599Y026748D01*
X007632Y026709D01*
X007661Y026668D01*
X007687Y026625D01*
X007710Y026580D01*
X007729Y026533D01*
X007744Y026485D01*
X007756Y026436D01*
X007764Y026386D01*
X007768Y026336D01*
X007768Y026286D01*
X007764Y026236D01*
X007756Y026186D01*
X007744Y026137D01*
X007729Y026089D01*
X007710Y026042D01*
X007687Y025997D01*
X007661Y025954D01*
X007632Y025913D01*
X007599Y025874D01*
X007564Y025838D01*
X007526Y025805D01*
X007486Y025775D01*
X007443Y025748D01*
X007398Y025725D01*
X007352Y025705D01*
X007304Y025688D01*
X007256Y025676D01*
X007206Y025667D01*
X007156Y025662D01*
X007105Y025661D01*
X007055Y025664D01*
X007005Y025671D01*
X006956Y025682D01*
X006908Y025696D01*
X006861Y025714D01*
X006815Y025736D01*
X006771Y025761D01*
X006730Y025790D01*
X006691Y025821D01*
X006654Y025856D01*
X006620Y025893D01*
X006589Y025933D01*
X006561Y025975D01*
X006537Y026019D01*
X006516Y026065D01*
X006499Y026113D01*
X006486Y026161D01*
X006476Y026211D01*
X006470Y026261D01*
X006468Y026311D01*
X023768Y026311D02*
X023770Y026361D01*
X023776Y026411D01*
X023786Y026461D01*
X023799Y026509D01*
X023816Y026557D01*
X023837Y026603D01*
X023861Y026647D01*
X023889Y026689D01*
X023920Y026729D01*
X023954Y026766D01*
X023991Y026801D01*
X024030Y026832D01*
X024071Y026861D01*
X024115Y026886D01*
X024161Y026908D01*
X024208Y026926D01*
X024256Y026940D01*
X024305Y026951D01*
X024355Y026958D01*
X024405Y026961D01*
X024456Y026960D01*
X024506Y026955D01*
X024556Y026946D01*
X024604Y026934D01*
X024652Y026917D01*
X024698Y026897D01*
X024743Y026874D01*
X024786Y026847D01*
X024826Y026817D01*
X024864Y026784D01*
X024899Y026748D01*
X024932Y026709D01*
X024961Y026668D01*
X024987Y026625D01*
X025010Y026580D01*
X025029Y026533D01*
X025044Y026485D01*
X025056Y026436D01*
X025064Y026386D01*
X025068Y026336D01*
X025068Y026286D01*
X025064Y026236D01*
X025056Y026186D01*
X025044Y026137D01*
X025029Y026089D01*
X025010Y026042D01*
X024987Y025997D01*
X024961Y025954D01*
X024932Y025913D01*
X024899Y025874D01*
X024864Y025838D01*
X024826Y025805D01*
X024786Y025775D01*
X024743Y025748D01*
X024698Y025725D01*
X024652Y025705D01*
X024604Y025688D01*
X024556Y025676D01*
X024506Y025667D01*
X024456Y025662D01*
X024405Y025661D01*
X024355Y025664D01*
X024305Y025671D01*
X024256Y025682D01*
X024208Y025696D01*
X024161Y025714D01*
X024115Y025736D01*
X024071Y025761D01*
X024030Y025790D01*
X023991Y025821D01*
X023954Y025856D01*
X023920Y025893D01*
X023889Y025933D01*
X023861Y025975D01*
X023837Y026019D01*
X023816Y026065D01*
X023799Y026113D01*
X023786Y026161D01*
X023776Y026211D01*
X023770Y026261D01*
X023768Y026311D01*
X023768Y008811D02*
X023770Y008861D01*
X023776Y008911D01*
X023786Y008961D01*
X023799Y009009D01*
X023816Y009057D01*
X023837Y009103D01*
X023861Y009147D01*
X023889Y009189D01*
X023920Y009229D01*
X023954Y009266D01*
X023991Y009301D01*
X024030Y009332D01*
X024071Y009361D01*
X024115Y009386D01*
X024161Y009408D01*
X024208Y009426D01*
X024256Y009440D01*
X024305Y009451D01*
X024355Y009458D01*
X024405Y009461D01*
X024456Y009460D01*
X024506Y009455D01*
X024556Y009446D01*
X024604Y009434D01*
X024652Y009417D01*
X024698Y009397D01*
X024743Y009374D01*
X024786Y009347D01*
X024826Y009317D01*
X024864Y009284D01*
X024899Y009248D01*
X024932Y009209D01*
X024961Y009168D01*
X024987Y009125D01*
X025010Y009080D01*
X025029Y009033D01*
X025044Y008985D01*
X025056Y008936D01*
X025064Y008886D01*
X025068Y008836D01*
X025068Y008786D01*
X025064Y008736D01*
X025056Y008686D01*
X025044Y008637D01*
X025029Y008589D01*
X025010Y008542D01*
X024987Y008497D01*
X024961Y008454D01*
X024932Y008413D01*
X024899Y008374D01*
X024864Y008338D01*
X024826Y008305D01*
X024786Y008275D01*
X024743Y008248D01*
X024698Y008225D01*
X024652Y008205D01*
X024604Y008188D01*
X024556Y008176D01*
X024506Y008167D01*
X024456Y008162D01*
X024405Y008161D01*
X024355Y008164D01*
X024305Y008171D01*
X024256Y008182D01*
X024208Y008196D01*
X024161Y008214D01*
X024115Y008236D01*
X024071Y008261D01*
X024030Y008290D01*
X023991Y008321D01*
X023954Y008356D01*
X023920Y008393D01*
X023889Y008433D01*
X023861Y008475D01*
X023837Y008519D01*
X023816Y008565D01*
X023799Y008613D01*
X023786Y008661D01*
X023776Y008711D01*
X023770Y008761D01*
X023768Y008811D01*
D11*
X021828Y013801D02*
X021758Y013801D01*
X021758Y013871D01*
X021828Y013871D01*
X021828Y013801D01*
X021908Y017351D02*
X021978Y017351D01*
X021978Y017421D01*
X021908Y017421D01*
X021908Y017351D01*
X019378Y021751D02*
X019378Y022171D01*
X019378Y021961D02*
X019098Y021961D01*
X018917Y021961D02*
X018777Y021961D01*
X018917Y021751D02*
X018637Y021751D01*
X018457Y021751D02*
X018457Y022031D01*
X018317Y022171D01*
X018177Y022031D01*
X018177Y021751D01*
X017997Y021751D02*
X017787Y021751D01*
X017716Y021821D01*
X017716Y022101D01*
X017787Y022171D01*
X017997Y022171D01*
X017997Y021751D01*
X018177Y021961D02*
X018457Y021961D01*
X018637Y022171D02*
X018917Y022171D01*
X018917Y021751D01*
X019098Y021751D02*
X019098Y022171D01*
X017536Y022171D02*
X017536Y021751D01*
X017256Y021751D01*
X017076Y021751D02*
X017076Y022171D01*
X016866Y022171D01*
X016796Y022101D01*
X016796Y021961D01*
X016866Y021891D01*
X017076Y021891D01*
X016936Y021891D02*
X016796Y021751D01*
X016616Y021821D02*
X016546Y021751D01*
X016406Y021751D01*
X016335Y021821D01*
X016335Y021891D01*
X016406Y021961D01*
X016546Y021961D01*
X016616Y022031D01*
X016616Y022101D01*
X016546Y022171D01*
X016406Y022171D01*
X016335Y022101D01*
X017256Y022171D02*
X017536Y022171D01*
X017536Y021961D02*
X017396Y021961D01*
X017628Y012490D02*
X017908Y012490D01*
X017978Y012420D01*
X017978Y012210D01*
X017558Y012210D01*
X017558Y012420D01*
X017628Y012490D01*
X017628Y012030D02*
X017558Y011959D01*
X017558Y011819D01*
X017628Y011749D01*
X017768Y011819D02*
X017768Y011959D01*
X017698Y012030D01*
X017628Y012030D01*
X017768Y011819D02*
X017838Y011749D01*
X017908Y011749D01*
X017978Y011819D01*
X017978Y011959D01*
X017908Y012030D01*
X017908Y011569D02*
X017628Y011569D01*
X017558Y011499D01*
X017558Y011359D01*
X017628Y011289D01*
X017908Y011289D01*
X017978Y011359D01*
X017978Y011499D01*
X017908Y011569D01*
X017908Y011109D02*
X017768Y011109D01*
X017698Y011039D01*
X017698Y010829D01*
X017698Y010969D02*
X017558Y011109D01*
X017558Y010829D02*
X017978Y010829D01*
X017978Y011039D01*
X017908Y011109D01*
X017908Y010649D02*
X017978Y010578D01*
X017978Y010438D01*
X017908Y010368D01*
X017628Y010368D01*
X017558Y010438D01*
X017558Y010578D01*
X017628Y010649D01*
X017558Y010201D02*
X017558Y010061D01*
X017558Y010131D02*
X017978Y010131D01*
X017978Y010061D02*
X017978Y010201D01*
X017978Y009881D02*
X017558Y009881D01*
X017558Y009601D02*
X017978Y009601D01*
X017838Y009741D01*
X017978Y009881D01*
D12*
X021918Y013611D02*
X022918Y013611D01*
X022918Y016111D01*
X021918Y016111D01*
X021918Y013611D01*
X022068Y013736D02*
X022023Y013781D01*
X022023Y013961D01*
X022068Y014006D01*
X022204Y014006D01*
X022204Y013736D01*
X022068Y013736D01*
X022318Y013736D02*
X022318Y014006D01*
X022408Y014136D02*
X022408Y014406D01*
X022498Y014406D02*
X022318Y014406D01*
X022204Y014361D02*
X022204Y014316D01*
X022159Y014271D01*
X022068Y014271D01*
X022023Y014226D01*
X022023Y014181D01*
X022068Y014136D01*
X022159Y014136D01*
X022204Y014181D01*
X022204Y014361D02*
X022159Y014406D01*
X022068Y014406D01*
X022023Y014361D01*
X022068Y014536D02*
X022023Y014581D01*
X022068Y014536D02*
X022159Y014536D01*
X022204Y014581D01*
X022204Y014761D01*
X022159Y014806D01*
X022068Y014806D01*
X022023Y014761D01*
X022068Y014936D02*
X022023Y014981D01*
X022023Y015161D01*
X022068Y015206D01*
X022159Y015206D01*
X022204Y015161D01*
X022204Y014981D01*
X022159Y014936D01*
X022068Y014936D01*
X022318Y014936D02*
X022498Y015206D01*
X022613Y015206D02*
X022793Y015206D01*
X022703Y015206D02*
X022703Y014936D01*
X022793Y014806D02*
X022793Y014626D01*
X022703Y014536D01*
X022613Y014626D01*
X022613Y014806D01*
X022498Y014761D02*
X022498Y014581D01*
X022453Y014536D01*
X022363Y014536D01*
X022318Y014581D01*
X022318Y014761D02*
X022363Y014806D01*
X022453Y014806D01*
X022498Y014761D01*
X022498Y014936D02*
X022318Y015206D01*
X022318Y015336D02*
X022498Y015606D01*
X022613Y015561D02*
X022658Y015606D01*
X022793Y015606D01*
X022793Y015336D01*
X022793Y015426D02*
X022658Y015426D01*
X022613Y015471D01*
X022613Y015561D01*
X022703Y015426D02*
X022613Y015336D01*
X022498Y015336D02*
X022318Y015606D01*
X022204Y015606D02*
X022113Y015606D01*
X022159Y015606D02*
X022159Y015336D01*
X022204Y015336D02*
X022113Y015336D01*
X022023Y015736D02*
X022113Y015826D01*
X022068Y015826D02*
X022204Y015826D01*
X022204Y015736D02*
X022204Y016006D01*
X022068Y016006D01*
X022023Y015961D01*
X022023Y015871D01*
X022068Y015826D01*
X022318Y016006D02*
X022498Y016006D01*
X022408Y016006D02*
X022408Y015736D01*
X022613Y015781D02*
X022613Y015961D01*
X022658Y016006D01*
X022793Y016006D01*
X022793Y015736D01*
X022658Y015736D01*
X022613Y015781D01*
X022658Y014406D02*
X022748Y014406D01*
X022793Y014361D01*
X022793Y014181D01*
X022748Y014136D01*
X022658Y014136D01*
X022613Y014181D01*
X022613Y014361D02*
X022658Y014406D01*
X022658Y014006D02*
X022748Y014006D01*
X022793Y013961D01*
X022793Y013781D01*
X022748Y013736D01*
X022658Y013736D01*
X022613Y013781D01*
X022613Y013871D01*
X022703Y013871D01*
X022613Y013961D02*
X022658Y014006D01*
X022498Y014006D02*
X022318Y013736D01*
X022498Y013736D02*
X022498Y014006D01*
X021818Y017111D02*
X019418Y017111D01*
X019418Y018411D01*
X021818Y018411D01*
X021818Y017111D01*
X021693Y017281D02*
X021648Y017236D01*
X021558Y017236D01*
X021513Y017281D01*
X021513Y017371D01*
X021603Y017371D01*
X021693Y017461D02*
X021693Y017281D01*
X021693Y017461D02*
X021648Y017506D01*
X021558Y017506D01*
X021513Y017461D01*
X021398Y017506D02*
X021218Y017236D01*
X021218Y017506D01*
X021104Y017506D02*
X020968Y017506D01*
X020923Y017461D01*
X020923Y017281D01*
X020968Y017236D01*
X021104Y017236D01*
X021104Y017506D01*
X021059Y017636D02*
X020968Y017636D01*
X020923Y017681D01*
X020923Y017726D01*
X020968Y017771D01*
X021059Y017771D01*
X021104Y017816D01*
X021104Y017861D01*
X021059Y017906D01*
X020968Y017906D01*
X020923Y017861D01*
X020809Y017906D02*
X020719Y017906D01*
X020764Y017906D02*
X020764Y017636D01*
X020809Y017636D02*
X020719Y017636D01*
X020493Y017681D02*
X020448Y017636D01*
X020358Y017636D01*
X020313Y017681D01*
X020313Y017726D01*
X020358Y017771D01*
X020448Y017771D01*
X020493Y017816D01*
X020493Y017861D01*
X020448Y017906D01*
X020358Y017906D01*
X020313Y017861D01*
X020198Y017861D02*
X020198Y017681D01*
X020153Y017636D01*
X020063Y017636D01*
X020018Y017681D01*
X019904Y017636D02*
X019904Y017906D01*
X020018Y017861D02*
X020063Y017906D01*
X020153Y017906D01*
X020198Y017861D01*
X020198Y018036D02*
X020108Y018036D01*
X020153Y018036D02*
X020153Y018306D01*
X020198Y018306D02*
X020108Y018306D01*
X020002Y018261D02*
X020002Y018216D01*
X019957Y018171D01*
X019867Y018171D01*
X019822Y018126D01*
X019822Y018081D01*
X019867Y018036D01*
X019957Y018036D01*
X020002Y018081D01*
X020002Y018261D02*
X019957Y018306D01*
X019867Y018306D01*
X019822Y018261D01*
X019707Y018261D02*
X019707Y018081D01*
X019662Y018036D01*
X019572Y018036D01*
X019527Y018081D01*
X019527Y018261D01*
X019572Y018306D01*
X019662Y018306D01*
X019707Y018261D01*
X019723Y017906D02*
X019904Y017726D01*
X019859Y017771D02*
X019723Y017636D01*
X019723Y017506D02*
X019904Y017506D01*
X019813Y017506D02*
X019813Y017236D01*
X020018Y017281D02*
X020018Y017326D01*
X020063Y017371D01*
X020153Y017371D01*
X020198Y017416D01*
X020198Y017461D01*
X020153Y017506D01*
X020063Y017506D01*
X020018Y017461D01*
X020018Y017281D02*
X020063Y017236D01*
X020153Y017236D01*
X020198Y017281D01*
X020313Y017236D02*
X020403Y017326D01*
X020358Y017326D02*
X020493Y017326D01*
X020493Y017236D02*
X020493Y017506D01*
X020358Y017506D01*
X020313Y017461D01*
X020313Y017371D01*
X020358Y017326D01*
X020313Y018036D02*
X020313Y018306D01*
X020403Y018216D01*
X020493Y018306D01*
X020493Y018036D01*
X020923Y018081D02*
X020968Y018036D01*
X021059Y018036D01*
X021104Y018081D01*
X021218Y018126D02*
X021218Y018306D01*
X021104Y018261D02*
X021059Y018306D01*
X020968Y018306D01*
X020923Y018261D01*
X020923Y018216D01*
X020968Y018171D01*
X020923Y018126D01*
X020923Y018081D01*
X020968Y018171D02*
X021013Y018171D01*
X021218Y018126D02*
X021308Y018036D01*
X021398Y018126D01*
X021398Y018306D01*
X021513Y018261D02*
X021513Y018216D01*
X021558Y018171D01*
X021513Y018126D01*
X021513Y018081D01*
X021558Y018036D01*
X021648Y018036D01*
X021693Y018081D01*
X021603Y018171D02*
X021558Y018171D01*
X021513Y018261D02*
X021558Y018306D01*
X021648Y018306D01*
X021693Y018261D01*
X021693Y017906D02*
X021603Y017816D01*
X021513Y017906D01*
X021513Y017636D01*
X021398Y017681D02*
X021353Y017636D01*
X021263Y017636D01*
X021218Y017681D01*
X021218Y017861D01*
X021263Y017906D01*
X021353Y017906D01*
X021398Y017861D01*
X021398Y017681D01*
X021398Y017506D02*
X021398Y017236D01*
X021693Y017636D02*
X021693Y017906D01*
X021104Y017681D02*
X021059Y017636D01*
X019918Y019511D02*
X019418Y019511D01*
X019418Y021611D01*
X019918Y021611D01*
X019918Y021011D01*
X015818Y021011D01*
X015818Y021611D01*
X017618Y021611D01*
X017618Y019511D01*
X015818Y019511D01*
X015818Y021011D01*
X016723Y020861D02*
X016723Y020816D01*
X016768Y020771D01*
X016723Y020726D01*
X016723Y020681D01*
X016768Y020636D01*
X016859Y020636D01*
X016904Y020681D01*
X017018Y020726D02*
X017018Y020906D01*
X016904Y020861D02*
X016859Y020906D01*
X016768Y020906D01*
X016723Y020861D01*
X016768Y020771D02*
X016813Y020771D01*
X017018Y020726D02*
X017108Y020636D01*
X017198Y020726D01*
X017198Y020906D01*
X017313Y020861D02*
X017313Y020816D01*
X017358Y020771D01*
X017313Y020726D01*
X017313Y020681D01*
X017358Y020636D01*
X017448Y020636D01*
X017493Y020681D01*
X017403Y020771D02*
X017358Y020771D01*
X017313Y020861D02*
X017358Y020906D01*
X017448Y020906D01*
X017493Y020861D01*
X017448Y020406D02*
X017493Y020361D01*
X017493Y020181D01*
X017448Y020136D01*
X017358Y020136D01*
X017313Y020181D01*
X017313Y020271D01*
X017403Y020271D01*
X017313Y020361D02*
X017358Y020406D01*
X017448Y020406D01*
X017198Y020406D02*
X017018Y020136D01*
X017018Y020406D01*
X016904Y020406D02*
X016904Y020136D01*
X016768Y020136D01*
X016723Y020181D01*
X016723Y020361D01*
X016768Y020406D01*
X016904Y020406D01*
X017198Y020406D02*
X017198Y020136D01*
X017108Y019906D02*
X017108Y019636D01*
X017198Y019636D02*
X017018Y019636D01*
X016904Y019771D02*
X016723Y019771D01*
X016609Y019771D02*
X016429Y019771D01*
X016429Y019816D02*
X016429Y019636D01*
X016314Y019636D02*
X016314Y019681D01*
X016134Y019861D01*
X016134Y019906D01*
X016314Y019906D01*
X016429Y019816D02*
X016519Y019906D01*
X016609Y019816D01*
X016609Y019636D01*
X017108Y019906D02*
X017198Y019816D01*
X017313Y019816D02*
X017403Y019906D01*
X017493Y019816D01*
X017493Y019636D01*
X017493Y019771D02*
X017313Y019771D01*
X017313Y019816D02*
X017313Y019636D01*
X017618Y019511D02*
X019418Y019511D01*
X019293Y019636D02*
X019158Y019636D01*
X019113Y019681D01*
X019113Y019861D01*
X019158Y019906D01*
X019293Y019906D01*
X019293Y019636D01*
X018998Y019681D02*
X018998Y019726D01*
X018953Y019771D01*
X018863Y019771D01*
X018818Y019726D01*
X018818Y019681D01*
X018863Y019636D01*
X018953Y019636D01*
X018998Y019681D01*
X018953Y019771D02*
X018998Y019816D01*
X018998Y019861D01*
X018953Y019906D01*
X018863Y019906D01*
X018818Y019861D01*
X018818Y019816D01*
X018863Y019771D01*
X018704Y019771D02*
X018523Y019771D01*
X018409Y019906D02*
X018409Y019636D01*
X018274Y019636D01*
X018229Y019681D01*
X018229Y019861D01*
X018274Y019906D01*
X018409Y019906D01*
X018568Y020136D02*
X018523Y020181D01*
X018523Y020361D01*
X018568Y020406D01*
X018704Y020406D01*
X018704Y020136D01*
X018568Y020136D01*
X018818Y020136D02*
X018818Y020406D01*
X018998Y020406D02*
X018818Y020136D01*
X018998Y020136D02*
X018998Y020406D01*
X019113Y020361D02*
X019158Y020406D01*
X019248Y020406D01*
X019293Y020361D01*
X019293Y020181D01*
X019248Y020136D01*
X019158Y020136D01*
X019113Y020181D01*
X019113Y020271D01*
X019203Y020271D01*
X019248Y020636D02*
X019293Y020681D01*
X019248Y020636D02*
X019158Y020636D01*
X019113Y020681D01*
X019113Y020726D01*
X019158Y020771D01*
X019203Y020771D01*
X019158Y020771D02*
X019113Y020816D01*
X019113Y020861D01*
X019158Y020906D01*
X019248Y020906D01*
X019293Y020861D01*
X018998Y020906D02*
X018998Y020726D01*
X018908Y020636D01*
X018818Y020726D01*
X018818Y020906D01*
X018704Y020861D02*
X018659Y020906D01*
X018568Y020906D01*
X018523Y020861D01*
X018523Y020816D01*
X018568Y020771D01*
X018523Y020726D01*
X018523Y020681D01*
X018568Y020636D01*
X018659Y020636D01*
X018704Y020681D01*
X018613Y020771D02*
X018568Y020771D01*
X018069Y019906D02*
X018114Y019861D01*
X018114Y019816D01*
X018069Y019771D01*
X017934Y019771D01*
X017934Y019681D02*
X017934Y019861D01*
X017979Y019906D01*
X018069Y019906D01*
X018114Y019681D02*
X018069Y019636D01*
X017979Y019636D01*
X017934Y019681D01*
X019613Y019726D02*
X019793Y019726D01*
X019793Y019816D02*
X019658Y019816D01*
X019613Y019816D01*
X019658Y019906D02*
X019658Y019636D01*
X019748Y019636D02*
X019748Y019906D01*
X019793Y020136D02*
X019613Y020316D01*
X019613Y020361D01*
X019658Y020406D01*
X019748Y020406D01*
X019793Y020361D01*
X019793Y020136D02*
X019613Y020136D01*
X019613Y020636D02*
X019793Y020636D01*
X019703Y020636D02*
X019703Y020906D01*
X019793Y020816D01*
X019918Y021011D02*
X019918Y019511D01*
X018918Y017811D02*
X015118Y017811D01*
X015118Y015511D01*
X018918Y015511D01*
X018918Y014811D01*
X015118Y014811D01*
X015118Y015511D01*
X015470Y015286D02*
X015470Y015036D01*
X015303Y015036D01*
X015580Y015036D02*
X015746Y015036D01*
X015746Y015286D01*
X015580Y015286D01*
X015663Y015161D02*
X015746Y015161D01*
X015856Y015286D02*
X016023Y015286D01*
X015939Y015286D02*
X015939Y015036D01*
X016132Y015036D02*
X016132Y015203D01*
X016216Y015286D01*
X016299Y015203D01*
X016299Y015036D01*
X016299Y015161D02*
X016132Y015161D01*
X016408Y015161D02*
X016450Y015119D01*
X016575Y015119D01*
X016575Y015036D02*
X016575Y015286D01*
X016450Y015286D01*
X016408Y015245D01*
X016408Y015161D01*
X016961Y015161D02*
X017128Y015161D01*
X017237Y015119D02*
X017237Y015078D01*
X017279Y015036D01*
X017362Y015036D01*
X017404Y015078D01*
X017362Y015161D02*
X017279Y015161D01*
X017237Y015119D01*
X017237Y015245D02*
X017279Y015286D01*
X017362Y015286D01*
X017404Y015245D01*
X017404Y015203D01*
X017362Y015161D01*
X017513Y015036D02*
X017680Y015036D01*
X017680Y015286D01*
X017513Y015286D01*
X017597Y015161D02*
X017680Y015161D01*
X017789Y015245D02*
X017789Y015286D01*
X017789Y015245D02*
X017873Y015161D01*
X017873Y015036D01*
X017873Y015161D02*
X017956Y015245D01*
X017956Y015286D01*
X018057Y015286D02*
X018140Y015286D01*
X018099Y015286D02*
X018099Y015036D01*
X018140Y015036D02*
X018057Y015036D01*
X018250Y015036D02*
X018333Y015119D01*
X018291Y015119D02*
X018417Y015119D01*
X018417Y015036D02*
X018417Y015286D01*
X018291Y015286D01*
X018250Y015245D01*
X018250Y015161D01*
X018291Y015119D01*
X018526Y015161D02*
X018568Y015119D01*
X018693Y015119D01*
X018693Y015036D02*
X018693Y015286D01*
X018568Y015286D01*
X018526Y015245D01*
X018526Y015161D01*
X018918Y015511D02*
X018918Y017811D01*
X017128Y015286D02*
X017128Y015036D01*
X016961Y015036D02*
X016961Y015286D01*
X017618Y021611D02*
X019418Y021611D01*
D13*
X019288Y021481D02*
X019118Y021481D01*
X019061Y021425D01*
X019061Y021198D01*
X019118Y021141D01*
X019288Y021141D01*
X019288Y021481D01*
X018919Y021425D02*
X018919Y021198D01*
X018863Y021141D01*
X018749Y021141D01*
X018693Y021198D01*
X018693Y021311D01*
X018806Y021311D01*
X018693Y021425D02*
X018749Y021481D01*
X018863Y021481D01*
X018919Y021425D01*
X018551Y021481D02*
X018324Y021481D01*
X018438Y021481D02*
X018438Y021141D01*
X018183Y021141D02*
X018183Y021481D01*
X018183Y021141D02*
X017956Y021141D01*
X017488Y021141D02*
X017488Y021368D01*
X017374Y021481D01*
X017261Y021368D01*
X017261Y021141D01*
X017119Y021141D02*
X017119Y021481D01*
X016893Y021141D01*
X016893Y021481D01*
X016751Y021481D02*
X016751Y021141D01*
X016524Y021141D01*
X016383Y021198D02*
X016383Y021425D01*
X016326Y021481D01*
X016213Y021481D01*
X016156Y021425D01*
X016156Y021311D02*
X016269Y021311D01*
X016156Y021311D02*
X016156Y021198D01*
X016213Y021141D01*
X016326Y021141D01*
X016383Y021198D01*
X017261Y021311D02*
X017488Y021311D01*
X020579Y018825D02*
X020579Y018711D01*
X020636Y018654D01*
X020806Y018654D01*
X020806Y018541D02*
X020806Y018881D01*
X020636Y018881D01*
X020579Y018825D01*
X020947Y018825D02*
X021004Y018881D01*
X021117Y018881D01*
X021174Y018825D01*
X021174Y018768D01*
X021117Y018711D01*
X021004Y018711D01*
X020947Y018654D01*
X020947Y018598D01*
X021004Y018541D01*
X021117Y018541D01*
X021174Y018598D01*
X021315Y018598D02*
X021372Y018541D01*
X021486Y018541D01*
X021542Y018598D01*
X021542Y018825D01*
X021486Y018881D01*
X021372Y018881D01*
X021315Y018825D01*
X021674Y018881D02*
X021788Y018881D01*
X021731Y018881D02*
X021731Y018541D01*
X021788Y018541D02*
X021674Y018541D01*
X021669Y016581D02*
X021783Y016581D01*
X021726Y016581D02*
X021726Y016241D01*
X021783Y016241D02*
X021669Y016241D01*
X021924Y016298D02*
X021924Y016525D01*
X021981Y016581D01*
X022151Y016581D01*
X022151Y016241D01*
X021981Y016241D01*
X021924Y016298D01*
X022293Y016581D02*
X022519Y016581D01*
X022406Y016581D02*
X022406Y016241D01*
X022661Y016581D02*
X022888Y016581D01*
X022888Y016241D01*
X022888Y016411D02*
X022774Y016411D01*
D14*
X018693Y016786D02*
X018693Y017353D01*
X018409Y017637D01*
X018126Y017353D01*
X018126Y016786D01*
X017772Y016786D02*
X017772Y017637D01*
X017347Y017637D01*
X017205Y017495D01*
X017205Y017211D01*
X017347Y017070D01*
X017772Y017070D01*
X018126Y017211D02*
X018693Y017211D01*
X016851Y017211D02*
X016568Y017211D01*
X016851Y016786D02*
X016284Y016786D01*
X015931Y016786D02*
X015363Y017637D01*
X015931Y017637D02*
X015363Y016786D01*
X016284Y017637D02*
X016851Y017637D01*
X016851Y016786D01*
D15*
X016894Y016402D02*
X016781Y016288D01*
X016781Y016061D01*
X016894Y015948D01*
X017235Y015948D01*
X017235Y015721D02*
X017235Y016402D01*
X016894Y016402D01*
X016498Y016402D02*
X016498Y015721D01*
X016498Y016061D02*
X016044Y016061D01*
X015761Y016061D02*
X015308Y016061D01*
X015308Y016175D02*
X015308Y015721D01*
X015761Y015721D02*
X015761Y016175D01*
X015534Y016402D01*
X015308Y016175D01*
X016044Y016402D02*
X016044Y015721D01*
X017517Y015721D02*
X017971Y015721D01*
X017971Y016402D01*
X018254Y016175D02*
X018254Y015721D01*
X018254Y016061D02*
X018708Y016061D01*
X018708Y016175D02*
X018708Y015721D01*
X018708Y016175D02*
X018481Y016402D01*
X018254Y016175D01*
M02*
