G75*
G70*
%OFA0B0*%
%FSLAX24Y24*%
%IPPOS*%
%LPD*%
%AMOC8*
5,1,8,0,0,1.08239X$1,22.5*
%
%ADD10C,0.0000*%
%ADD11C,0.0640*%
%ADD12C,0.0780*%
%ADD13R,0.0640X0.0640*%
%ADD14OC8,0.0640*%
%ADD15R,0.0276X0.0729*%
%ADD16R,0.0552X0.0631*%
%ADD17R,0.0355X0.0591*%
%ADD18R,0.0434X0.0650*%
%ADD19R,0.0355X0.0709*%
%ADD20R,0.0788X0.0434*%
%ADD21C,0.0555*%
%ADD22R,0.1221X0.2205*%
%ADD23C,0.1340*%
D10*
X006618Y007811D02*
X024988Y007811D01*
X025032Y007813D01*
X025075Y007819D01*
X025117Y007828D01*
X025159Y007841D01*
X025199Y007858D01*
X025238Y007878D01*
X025275Y007901D01*
X025309Y007928D01*
X025342Y007957D01*
X025371Y007990D01*
X025398Y008024D01*
X025421Y008061D01*
X025441Y008100D01*
X025458Y008140D01*
X025471Y008182D01*
X025480Y008224D01*
X025486Y008267D01*
X025488Y008311D01*
X025488Y026807D01*
X025486Y026851D01*
X025480Y026894D01*
X025471Y026936D01*
X025458Y026978D01*
X025441Y027018D01*
X025421Y027057D01*
X025398Y027094D01*
X025371Y027128D01*
X025342Y027161D01*
X025309Y027190D01*
X025275Y027217D01*
X025238Y027240D01*
X025199Y027260D01*
X025159Y027277D01*
X025117Y027290D01*
X025075Y027299D01*
X025032Y027305D01*
X024988Y027307D01*
X006618Y027307D01*
X006574Y027305D01*
X006531Y027299D01*
X006489Y027290D01*
X006447Y027277D01*
X006407Y027260D01*
X006368Y027240D01*
X006331Y027217D01*
X006297Y027190D01*
X006264Y027161D01*
X006235Y027128D01*
X006208Y027094D01*
X006185Y027057D01*
X006165Y027018D01*
X006148Y026978D01*
X006135Y026936D01*
X006126Y026894D01*
X006120Y026851D01*
X006118Y026807D01*
X006118Y008311D01*
X006120Y008267D01*
X006126Y008224D01*
X006135Y008182D01*
X006148Y008140D01*
X006165Y008100D01*
X006185Y008061D01*
X006208Y008024D01*
X006235Y007990D01*
X006264Y007957D01*
X006297Y007928D01*
X006331Y007901D01*
X006368Y007878D01*
X006407Y007858D01*
X006447Y007841D01*
X006489Y007828D01*
X006531Y007819D01*
X006574Y007813D01*
X006618Y007811D01*
X010468Y012561D02*
X010470Y012611D01*
X010476Y012661D01*
X010486Y012711D01*
X010499Y012759D01*
X010516Y012807D01*
X010537Y012853D01*
X010561Y012897D01*
X010589Y012939D01*
X010620Y012979D01*
X010654Y013016D01*
X010691Y013051D01*
X010730Y013082D01*
X010771Y013111D01*
X010815Y013136D01*
X010861Y013158D01*
X010908Y013176D01*
X010956Y013190D01*
X011005Y013201D01*
X011055Y013208D01*
X011105Y013211D01*
X011156Y013210D01*
X011206Y013205D01*
X011256Y013196D01*
X011304Y013184D01*
X011352Y013167D01*
X011398Y013147D01*
X011443Y013124D01*
X011486Y013097D01*
X011526Y013067D01*
X011564Y013034D01*
X011599Y012998D01*
X011632Y012959D01*
X011661Y012918D01*
X011687Y012875D01*
X011710Y012830D01*
X011729Y012783D01*
X011744Y012735D01*
X011756Y012686D01*
X011764Y012636D01*
X011768Y012586D01*
X011768Y012536D01*
X011764Y012486D01*
X011756Y012436D01*
X011744Y012387D01*
X011729Y012339D01*
X011710Y012292D01*
X011687Y012247D01*
X011661Y012204D01*
X011632Y012163D01*
X011599Y012124D01*
X011564Y012088D01*
X011526Y012055D01*
X011486Y012025D01*
X011443Y011998D01*
X011398Y011975D01*
X011352Y011955D01*
X011304Y011938D01*
X011256Y011926D01*
X011206Y011917D01*
X011156Y011912D01*
X011105Y011911D01*
X011055Y011914D01*
X011005Y011921D01*
X010956Y011932D01*
X010908Y011946D01*
X010861Y011964D01*
X010815Y011986D01*
X010771Y012011D01*
X010730Y012040D01*
X010691Y012071D01*
X010654Y012106D01*
X010620Y012143D01*
X010589Y012183D01*
X010561Y012225D01*
X010537Y012269D01*
X010516Y012315D01*
X010499Y012363D01*
X010486Y012411D01*
X010476Y012461D01*
X010470Y012511D01*
X010468Y012561D01*
X006468Y026311D02*
X006470Y026361D01*
X006476Y026411D01*
X006486Y026461D01*
X006499Y026509D01*
X006516Y026557D01*
X006537Y026603D01*
X006561Y026647D01*
X006589Y026689D01*
X006620Y026729D01*
X006654Y026766D01*
X006691Y026801D01*
X006730Y026832D01*
X006771Y026861D01*
X006815Y026886D01*
X006861Y026908D01*
X006908Y026926D01*
X006956Y026940D01*
X007005Y026951D01*
X007055Y026958D01*
X007105Y026961D01*
X007156Y026960D01*
X007206Y026955D01*
X007256Y026946D01*
X007304Y026934D01*
X007352Y026917D01*
X007398Y026897D01*
X007443Y026874D01*
X007486Y026847D01*
X007526Y026817D01*
X007564Y026784D01*
X007599Y026748D01*
X007632Y026709D01*
X007661Y026668D01*
X007687Y026625D01*
X007710Y026580D01*
X007729Y026533D01*
X007744Y026485D01*
X007756Y026436D01*
X007764Y026386D01*
X007768Y026336D01*
X007768Y026286D01*
X007764Y026236D01*
X007756Y026186D01*
X007744Y026137D01*
X007729Y026089D01*
X007710Y026042D01*
X007687Y025997D01*
X007661Y025954D01*
X007632Y025913D01*
X007599Y025874D01*
X007564Y025838D01*
X007526Y025805D01*
X007486Y025775D01*
X007443Y025748D01*
X007398Y025725D01*
X007352Y025705D01*
X007304Y025688D01*
X007256Y025676D01*
X007206Y025667D01*
X007156Y025662D01*
X007105Y025661D01*
X007055Y025664D01*
X007005Y025671D01*
X006956Y025682D01*
X006908Y025696D01*
X006861Y025714D01*
X006815Y025736D01*
X006771Y025761D01*
X006730Y025790D01*
X006691Y025821D01*
X006654Y025856D01*
X006620Y025893D01*
X006589Y025933D01*
X006561Y025975D01*
X006537Y026019D01*
X006516Y026065D01*
X006499Y026113D01*
X006486Y026161D01*
X006476Y026211D01*
X006470Y026261D01*
X006468Y026311D01*
X023768Y026311D02*
X023770Y026361D01*
X023776Y026411D01*
X023786Y026461D01*
X023799Y026509D01*
X023816Y026557D01*
X023837Y026603D01*
X023861Y026647D01*
X023889Y026689D01*
X023920Y026729D01*
X023954Y026766D01*
X023991Y026801D01*
X024030Y026832D01*
X024071Y026861D01*
X024115Y026886D01*
X024161Y026908D01*
X024208Y026926D01*
X024256Y026940D01*
X024305Y026951D01*
X024355Y026958D01*
X024405Y026961D01*
X024456Y026960D01*
X024506Y026955D01*
X024556Y026946D01*
X024604Y026934D01*
X024652Y026917D01*
X024698Y026897D01*
X024743Y026874D01*
X024786Y026847D01*
X024826Y026817D01*
X024864Y026784D01*
X024899Y026748D01*
X024932Y026709D01*
X024961Y026668D01*
X024987Y026625D01*
X025010Y026580D01*
X025029Y026533D01*
X025044Y026485D01*
X025056Y026436D01*
X025064Y026386D01*
X025068Y026336D01*
X025068Y026286D01*
X025064Y026236D01*
X025056Y026186D01*
X025044Y026137D01*
X025029Y026089D01*
X025010Y026042D01*
X024987Y025997D01*
X024961Y025954D01*
X024932Y025913D01*
X024899Y025874D01*
X024864Y025838D01*
X024826Y025805D01*
X024786Y025775D01*
X024743Y025748D01*
X024698Y025725D01*
X024652Y025705D01*
X024604Y025688D01*
X024556Y025676D01*
X024506Y025667D01*
X024456Y025662D01*
X024405Y025661D01*
X024355Y025664D01*
X024305Y025671D01*
X024256Y025682D01*
X024208Y025696D01*
X024161Y025714D01*
X024115Y025736D01*
X024071Y025761D01*
X024030Y025790D01*
X023991Y025821D01*
X023954Y025856D01*
X023920Y025893D01*
X023889Y025933D01*
X023861Y025975D01*
X023837Y026019D01*
X023816Y026065D01*
X023799Y026113D01*
X023786Y026161D01*
X023776Y026211D01*
X023770Y026261D01*
X023768Y026311D01*
X023768Y008811D02*
X023770Y008861D01*
X023776Y008911D01*
X023786Y008961D01*
X023799Y009009D01*
X023816Y009057D01*
X023837Y009103D01*
X023861Y009147D01*
X023889Y009189D01*
X023920Y009229D01*
X023954Y009266D01*
X023991Y009301D01*
X024030Y009332D01*
X024071Y009361D01*
X024115Y009386D01*
X024161Y009408D01*
X024208Y009426D01*
X024256Y009440D01*
X024305Y009451D01*
X024355Y009458D01*
X024405Y009461D01*
X024456Y009460D01*
X024506Y009455D01*
X024556Y009446D01*
X024604Y009434D01*
X024652Y009417D01*
X024698Y009397D01*
X024743Y009374D01*
X024786Y009347D01*
X024826Y009317D01*
X024864Y009284D01*
X024899Y009248D01*
X024932Y009209D01*
X024961Y009168D01*
X024987Y009125D01*
X025010Y009080D01*
X025029Y009033D01*
X025044Y008985D01*
X025056Y008936D01*
X025064Y008886D01*
X025068Y008836D01*
X025068Y008786D01*
X025064Y008736D01*
X025056Y008686D01*
X025044Y008637D01*
X025029Y008589D01*
X025010Y008542D01*
X024987Y008497D01*
X024961Y008454D01*
X024932Y008413D01*
X024899Y008374D01*
X024864Y008338D01*
X024826Y008305D01*
X024786Y008275D01*
X024743Y008248D01*
X024698Y008225D01*
X024652Y008205D01*
X024604Y008188D01*
X024556Y008176D01*
X024506Y008167D01*
X024456Y008162D01*
X024405Y008161D01*
X024355Y008164D01*
X024305Y008171D01*
X024256Y008182D01*
X024208Y008196D01*
X024161Y008214D01*
X024115Y008236D01*
X024071Y008261D01*
X024030Y008290D01*
X023991Y008321D01*
X023954Y008356D01*
X023920Y008393D01*
X023889Y008433D01*
X023861Y008475D01*
X023837Y008519D01*
X023816Y008565D01*
X023799Y008613D01*
X023786Y008661D01*
X023776Y008711D01*
X023770Y008761D01*
X023768Y008811D01*
D11*
X023818Y022811D02*
X024418Y022811D01*
X024418Y023811D02*
X023818Y023811D01*
X021518Y025511D02*
X021518Y026111D01*
X020518Y026111D02*
X020518Y025511D01*
X019518Y025511D02*
X019518Y026111D01*
X018518Y026111D02*
X018518Y025511D01*
X017518Y025511D02*
X017518Y026111D01*
X016518Y026111D02*
X016518Y025511D01*
X015518Y025511D02*
X015518Y026111D01*
X014518Y026111D02*
X014518Y025511D01*
X013518Y025511D02*
X013518Y026111D01*
X012118Y026111D02*
X012118Y025511D01*
X011118Y025511D02*
X011118Y026111D01*
X010118Y026111D02*
X010118Y025511D01*
X009118Y025511D02*
X009118Y026111D01*
X007918Y017311D02*
X007318Y017311D01*
X007318Y016311D02*
X007918Y016311D01*
X007918Y015311D02*
X007318Y015311D01*
D12*
X024368Y015511D03*
X024368Y014511D03*
X024368Y013511D03*
X024368Y012511D03*
X024368Y011511D03*
X024368Y010511D03*
D13*
X023718Y018861D03*
D14*
X024718Y018861D03*
X024718Y017861D03*
X023718Y017861D03*
X023718Y016861D03*
X024718Y016861D03*
D15*
X022405Y008996D03*
X021972Y008996D03*
X021539Y008996D03*
X021106Y008996D03*
X020673Y008996D03*
X020240Y008996D03*
X019807Y008996D03*
X019374Y008996D03*
D16*
X018389Y009035D03*
X022878Y009035D03*
D17*
X018311Y012303D03*
D18*
X018468Y013209D03*
D19*
X022996Y011988D03*
D20*
X022799Y012657D03*
D21*
X007875Y012311D02*
X007360Y012311D01*
X007360Y013311D02*
X007875Y013311D01*
X007875Y011311D02*
X007360Y011311D01*
X007360Y019311D02*
X007875Y019311D01*
X007875Y020311D02*
X007360Y020311D01*
X007360Y021311D02*
X007875Y021311D01*
X007875Y022311D02*
X007360Y022311D01*
D22*
X009407Y009042D03*
D23*
X011118Y012561D03*
X024418Y008811D03*
X024418Y026311D03*
X007118Y026311D03*
M02*
