%
M48
M72
T01C0.0200
T02C0.0315
T03C0.0400
T04C0.1300
%
T01
X6618Y8811
X6618Y10811
X8368Y10811
X9618Y12311
X10118Y11811
X10618Y11311
X10318Y10811
X11118Y10811
X12118Y8811
X13818Y9811
X13618Y10811
X13618Y11811
X13618Y12811
X13618Y13811
X12618Y15561
X12618Y16311
X12868Y16711
X11868Y17811
X11418Y18161
X12518Y19011
X12668Y19611
X13618Y19611
X14218Y19611
X15018Y20361
X13868Y20661
X15518Y21911
X15618Y22311
X15518Y22711
X14718Y23411
X13668Y22911
X13743Y22311
X11968Y22061
X12018Y21661
X11993Y20686
X11418Y20011
X10368Y20311
X9118Y21811
X8618Y22436
X6668Y23111
X8268Y25461
X10918Y22911
X8043Y18636
X8368Y18061
X8993Y18061
X10618Y16661
X9368Y16311
X8618Y13311
X9118Y12811
X6618Y12811
X14618Y16811
X14618Y17811
X15618Y18311
X16618Y18311
X17618Y18311
X18618Y18311
X20743Y20561
X20518Y21811
X21868Y23011
X22468Y21861
X23743Y20311
X22118Y18461
X22618Y18111
X22318Y17711
X22318Y17261
X21468Y16711
X20618Y15811
X20618Y14811
X20618Y13811
X19118Y14311
X18118Y14311
X17118Y14311
X16118Y14311
X20218Y9961
X20668Y9861
X21418Y10011
X21618Y10411
X22068Y10536
X22618Y9811
X22318Y12111
X23218Y14311
X18118Y9811
X17118Y9811
X16018Y9811
X14918Y9811
X19018Y8311
X20518Y23611
X21018Y26711
X17018Y23811
X16118Y24411
T02
X7618Y22311
X7618Y21311
X7618Y20311
X7618Y19311
X7618Y13311
X7618Y12311
X7618Y11311
T03
X7618Y15311
X7618Y16311
X7618Y17311
X9118Y25811
X10118Y25811
X11118Y25811
X12118Y25811
X13518Y25811
X14518Y25811
X15518Y25811
X16518Y25811
X17518Y25811
X18518Y25811
X19518Y25811
X20518Y25811
X21518Y25811
X24118Y23811
X24118Y22811
X23718Y18861
X24718Y18861
X24718Y17861
X23718Y17861
X23718Y16861
X24718Y16861
X24368Y15511
X24368Y14511
X24368Y13511
X24368Y12511
X24368Y11511
X24368Y10511
T04
X24418Y8811
X11118Y12561
X7118Y26311
X24418Y26311
M30
